<svg xmlns="http://www.w3.org/2000/svg" viewBox="0 0 760 500" role="img" aria-label="EOQ maliyet odunlesme grafigi: siparis maliyeti azalirken tasima maliyeti artar; toplam maliyetin en dusuk oldugu nokta EOQ degerini verir.">
  <rect width="760" height="500" fill="#ffffff"/>
  <text x="40" y="34" font-size="18" font-weight="600" fill="#0f2a43" font-family="Newsreader,Georgia,serif">EOQ: toplam maliyetin en düşük olduğu sipariş miktarı</text>
  <g stroke="#eef2f7" stroke-width="1">
    <line x1="90" y1="306.7" x2="700" y2="306.7"/><line x1="90" y1="183.3" x2="700" y2="183.3"/><line x1="90" y1="60.0" x2="700" y2="60.0"/>
  </g>
  <line x1="90" y1="430" x2="700" y2="430" stroke="#94a3b8" stroke-width="1.5"/>
  <line x1="90" y1="430" x2="90" y2="60" stroke="#94a3b8" stroke-width="1.5"/>
  <line x1="90.0" y1="430" x2="90.0" y2="435" stroke="#94a3b8" stroke-width="1"/><text x="90.0" y="450" font-size="12" fill="#64748b" text-anchor="middle" font-family="Inter,system-ui,sans-serif">0</text><line x1="217.1" y1="430" x2="217.1" y2="435" stroke="#94a3b8" stroke-width="1"/><text x="217.1" y="450" font-size="12" fill="#64748b" text-anchor="middle" font-family="Inter,system-ui,sans-serif">100</text><line x1="344.2" y1="430" x2="344.2" y2="435" stroke="#94a3b8" stroke-width="1"/><text x="344.2" y="450" font-size="12" fill="#64748b" text-anchor="middle" font-family="Inter,system-ui,sans-serif">200</text><line x1="471.3" y1="430" x2="471.3" y2="435" stroke="#94a3b8" stroke-width="1"/><text x="471.3" y="450" font-size="12" fill="#64748b" text-anchor="middle" font-family="Inter,system-ui,sans-serif">300</text><line x1="598.3" y1="430" x2="598.3" y2="435" stroke="#94a3b8" stroke-width="1"/><text x="598.3" y="450" font-size="12" fill="#64748b" text-anchor="middle" font-family="Inter,system-ui,sans-serif">400</text><line x1="85" y1="430.0" x2="90" y2="430.0" stroke="#94a3b8" stroke-width="1"/><text x="80" y="434.0" font-size="12" fill="#64748b" text-anchor="end" font-family="Inter,system-ui,sans-serif">0</text><line x1="85" y1="306.7" x2="90" y2="306.7" stroke="#94a3b8" stroke-width="1"/><text x="80" y="310.7" font-size="12" fill="#64748b" text-anchor="end" font-family="Inter,system-ui,sans-serif">500</text><line x1="85" y1="183.3" x2="90" y2="183.3" stroke="#94a3b8" stroke-width="1"/><text x="80" y="187.3" font-size="12" fill="#64748b" text-anchor="end" font-family="Inter,system-ui,sans-serif">1000</text><line x1="85" y1="60.0" x2="90" y2="60.0" stroke="#94a3b8" stroke-width="1"/><text x="80" y="64.0" font-size="12" fill="#64748b" text-anchor="end" font-family="Inter,system-ui,sans-serif">1500</text>
  <text x="395" y="487" font-size="13" fill="#475569" text-anchor="middle" font-family="Inter,system-ui,sans-serif">Sipariş miktarı (adet)</text>
  <text x="24" y="245" font-size="13" fill="#475569" text-anchor="middle" font-family="Inter,system-ui,sans-serif" transform="rotate(-90 24 245)">Yıllık maliyet (TL)</text>
  <polyline fill="none" stroke="#6d28d9" stroke-width="2.5" points="175.1,61.8 179.0,77.6 182.8,92.1 186.6,105.4 190.4,117.8 194.2,129.2 198.0,139.8 201.8,149.7 205.6,158.9 209.5,167.6 213.3,175.7 217.1,183.3 220.9,190.5 224.7,197.3 228.5,203.7 232.3,209.8 236.1,215.5 240.0,221.0 243.8,226.1 247.6,231.1 251.4,235.8 255.2,240.3 259.0,244.5 262.8,248.6 266.6,252.5 270.5,256.3 274.3,259.9 278.1,263.3 281.9,266.6 285.7,269.8 289.5,272.9 293.3,275.8 297.1,278.7 301.0,281.4 304.8,284.0 308.6,286.6 312.4,289.0 316.2,291.4 320.0,293.7 323.8,295.9 327.6,298.1 331.5,300.2 335.3,302.2 339.1,304.1 342.9,306.0 346.7,307.9 350.5,309.7 354.3,311.4 358.1,313.1 362.0,314.7 365.8,316.3 369.6,317.9 373.4,319.4 377.2,320.9 381.0,322.3 384.8,323.7 388.6,325.0 392.5,326.4 396.3,327.6 400.1,328.9 403.9,330.1 407.7,331.3 411.5,332.5 415.3,333.6 419.1,334.8 423.0,335.9 426.8,336.9 430.6,338.0 434.4,339.0 438.2,340.0 442.0,341.0 445.8,341.9 449.6,342.8 453.5,343.8 457.3,344.6 461.1,345.5 464.9,346.4 468.7,347.2 472.5,348.1 476.3,348.9 480.1,349.7 484.0,350.4 487.8,351.2 491.6,351.9 495.4,352.7 499.2,353.4 503.0,354.1 506.8,354.8 510.6,355.5 514.5,356.1 518.3,356.8 522.1,357.5 525.9,358.1 529.7,358.7 533.5,359.3 537.3,359.9 541.1,360.5 545.0,361.1 548.8,361.7 552.6,362.2 556.4,362.8 560.2,363.3 564.0,363.9 567.8,364.4 571.6,364.9 575.5,365.4 579.3,365.9 583.1,366.4 586.9,366.9 590.7,367.4 594.5,367.9 598.3,368.3 602.1,368.8 606.0,369.2 609.8,369.7 613.6,370.1 617.4,370.6 621.2,371.0 625.0,371.4 628.8,371.8 632.6,372.2 636.5,372.6 640.3,373.0 644.1,373.4 647.9,373.8 651.7,374.2 655.5,374.6 659.3,374.9 663.1,375.3 667.0,375.7 670.8,376.0 674.6,376.4 678.4,376.7 682.2,377.1 686.0,377.4 689.8,377.7 693.6,378.1 697.5,378.4"/>
  <polyline fill="none" stroke="#b45309" stroke-width="2.5" points="90.0,430.0 93.8,428.1 97.6,426.3 101.4,424.4 105.3,422.6 109.1,420.8 112.9,418.9 116.7,417.1 120.5,415.2 124.3,413.4 128.1,411.5 131.9,409.6 135.8,407.8 139.6,405.9 143.4,404.1 147.2,402.3 151.0,400.4 154.8,398.6 158.6,396.7 162.4,394.9 166.3,393.0 170.1,391.1 173.9,389.3 177.7,387.4 181.5,385.6 185.3,383.8 189.1,381.9 192.9,380.1 196.8,378.2 200.6,376.4 204.4,374.5 208.2,372.6 212.0,370.8 215.8,368.9 219.6,367.1 223.4,365.3 227.3,363.4 231.1,361.6 234.9,359.7 238.7,357.9 242.5,356.0 246.3,354.1 250.1,352.3 253.9,350.4 257.8,348.6 261.6,346.8 265.4,344.9 269.2,343.1 273.0,341.2 276.8,339.4 280.6,337.5 284.4,335.6 288.3,333.8 292.1,331.9 295.9,330.1 299.7,328.3 303.5,326.4 307.3,324.6 311.1,322.7 314.9,320.9 318.8,319.0 322.6,317.1 326.4,315.3 330.2,313.4 334.0,311.6 337.8,309.8 341.6,307.9 345.4,306.1 349.3,304.2 353.1,302.4 356.9,300.5 360.7,298.6 364.5,296.8 368.3,295.0 372.1,293.1 375.9,291.3 379.8,289.4 383.6,287.5 387.4,285.7 391.2,283.9 395.0,282.0 398.8,280.1 402.6,278.3 406.4,276.5 410.3,274.6 414.1,272.8 417.9,270.9 421.7,269.1 425.5,267.2 429.3,265.4 433.1,263.5 436.9,261.6 440.8,259.8 444.6,257.9 448.4,256.1 452.2,254.3 456.0,252.4 459.8,250.6 463.6,248.7 467.4,246.8 471.3,245.0 475.1,243.2 478.9,241.3 482.7,239.4 486.5,237.6 490.3,235.8 494.1,233.9 497.9,232.0 501.8,230.2 505.6,228.3 509.4,226.5 513.2,224.6 517.0,222.8 520.8,221.0 524.6,219.1 528.4,217.3 532.3,215.4 536.1,213.6 539.9,211.7 543.7,209.9 547.5,208.0 551.3,206.2 555.1,204.3 558.9,202.5 562.8,200.6 566.6,198.8 570.4,196.9 574.2,195.0 578.0,193.2 581.8,191.3 585.6,189.5 589.4,187.6 593.3,185.8 597.1,183.9 600.9,182.1 604.7,180.2 608.5,178.4 612.3,176.5 616.1,174.7 619.9,172.9 623.8,171.0 627.6,169.2 631.4,167.3 635.2,165.4 639.0,163.6 642.8,161.8 646.6,159.9 650.4,158.1 654.3,156.2 658.1,154.4 661.9,152.5 665.7,150.6 669.5,148.8 673.3,146.9 677.1,145.1 680.9,143.3 684.8,141.4 688.6,139.6 692.4,137.7 696.2,135.8 700.0,134.0"/>
  <polyline fill="none" stroke="#0f2a43" stroke-width="3.5" points="186.6,60.0 190.4,69.0 194.2,78.6 198.0,87.4 201.8,95.4 205.6,102.8 209.5,109.6 213.3,115.9 217.1,121.7 220.9,127.0 224.7,131.9 228.5,136.5 232.3,140.7 236.1,144.6 240.0,148.2 243.8,151.5 247.6,154.6 251.4,157.5 255.2,160.1 259.0,162.5 262.8,164.8 266.6,166.8 270.5,168.7 274.3,170.5 278.1,172.1 281.9,173.5 285.7,174.9 289.5,176.1 293.3,177.2 297.1,178.2 301.0,179.0 304.8,179.8 308.6,180.5 312.4,181.1 316.2,181.7 320.0,182.1 323.8,182.5 327.6,182.8 331.5,183.0 335.3,183.2 339.1,183.3 342.9,183.3 346.7,183.3 350.5,183.3 354.3,183.1 358.1,183.0 362.0,182.8 365.8,182.5 369.6,182.2 373.4,181.9 377.2,181.5 381.0,181.1 384.8,180.6 388.6,180.1 392.5,179.6 396.3,179.0 400.1,178.4 403.9,177.8 407.7,177.2 411.5,176.5 415.3,175.8 419.1,175.0 423.0,174.3 426.8,173.5 430.6,172.7 434.4,171.9 438.2,171.0 442.0,170.1 445.8,169.2 449.6,168.3 453.5,167.4 457.3,166.4 461.1,165.5 464.9,164.5 468.7,163.5 472.5,162.4 476.3,161.4 480.1,160.3 484.0,159.3 487.8,158.2 491.6,157.1 495.4,156.0 499.2,154.8 503.0,153.7 506.8,152.5 510.6,151.4 514.5,150.2 518.3,149.0 522.1,147.8 525.9,146.6 529.7,145.3 533.5,144.1 537.3,142.9 541.1,141.6 545.0,140.3 548.8,139.1 552.6,137.8 556.4,136.5 560.2,135.2 564.0,133.9 567.8,132.5 571.6,131.2 575.5,129.9 579.3,128.5 583.1,127.2 586.9,125.8 590.7,124.4 594.5,123.1 598.3,121.7 602.1,120.3 606.0,118.9 609.8,117.5 613.6,116.1 617.4,114.6 621.2,113.2 625.0,111.8 628.8,110.4 632.6,108.9 636.5,107.5 640.3,106.0 644.1,104.6 647.9,103.1 651.7,101.6 655.5,100.2 659.3,98.7 663.1,97.2 667.0,95.7 670.8,94.2 674.6,92.7 678.4,91.2 682.2,89.7 686.0,88.2 689.8,86.7 693.6,85.2 697.5,83.6"/>
  <line x1="344.2" y1="183.3" x2="344.2" y2="430" stroke="#1e4e79" stroke-width="1.5" stroke-dasharray="5 4"/>
  <circle cx="344.2" cy="183.3" r="6" fill="#0f2a43" stroke="#fff" stroke-width="2"/>
  <rect x="310.2" y="143.3" width="68" height="26" rx="6" fill="#0f2a43"/>
  <text x="344.2" y="161.3" font-size="14" font-weight="700" fill="#fff" text-anchor="middle" font-family="Inter,system-ui,sans-serif">EOQ=200</text>
  <g font-family="Inter,system-ui,sans-serif" font-size="13">
    <rect x="495" y="78" width="195" height="78" rx="8" fill="#f8fafc" stroke="#e2e8f0"/>
    <line x1="507" y1="98" x2="529" y2="98" stroke="#0f2a43" stroke-width="3.5"/><text x="537" y="102" fill="#334155">Toplam maliyet</text>
    <line x1="507" y1="120" x2="529" y2="120" stroke="#6d28d9" stroke-width="2.5"/><text x="537" y="124" fill="#334155">Sipariş maliyeti</text>
    <line x1="507" y1="142" x2="529" y2="142" stroke="#b45309" stroke-width="2.5"/><text x="537" y="146" fill="#334155">Taşıma maliyeti</text>
  </g>
</svg>